<svg width="202" height="48" viewBox="0 0 202 48" fill="none" xmlns="http://www.w3.org/2000/svg">
<g clip-path="url(#clip0_9367_210)">
<path d="M87.5507 25.1421C88.1173 25.86 88.4021 26.6818 88.4021 27.6074C88.4021 28.4439 88.1974 29.1797 87.785 29.8145C87.3727 30.4494 86.7794 30.9448 86.0021 31.3038C85.2248 31.6627 84.3052 31.8407 83.2461 31.8407H76.5V16.2007H82.9524C84.0145 16.2007 84.9282 16.3727 85.6965 16.7169C86.4649 17.061 87.0493 17.5386 87.4439 18.1498C87.8384 18.7638 88.0372 19.458 88.0372 20.2323C88.0372 21.1431 87.7939 21.9055 87.3104 22.5166C86.8239 23.1307 86.1801 23.5638 85.3732 23.816C86.2543 23.9792 86.9781 24.4212 87.5477 25.1391L87.5507 25.1421ZM79.6387 22.6561H82.5074C83.255 22.6561 83.8305 22.487 84.234 22.1517C84.6375 21.8165 84.8392 21.3329 84.8392 20.707C84.8392 20.081 84.6375 19.5945 84.234 19.2504C83.8305 18.9062 83.255 18.7342 82.5074 18.7342H79.6387V22.6561ZM84.5811 28.7495C85.0083 28.3905 85.2189 27.8833 85.2189 27.2247C85.2189 26.5661 84.9934 26.0261 84.5455 25.6435C84.0975 25.2637 83.4923 25.0709 82.7299 25.0709H79.6387V29.2835H82.7981C83.5606 29.2835 84.1539 29.1055 84.5811 28.7465V28.7495Z" fill="#AFC083"/>
<path d="M98.4853 16.2007V25.8808C98.4853 26.9428 98.7612 27.7527 99.313 28.3134C99.8648 28.8741 100.642 29.153 101.645 29.153C102.648 29.153 103.446 28.8741 103.997 28.3134C104.549 27.7527 104.828 26.9428 104.828 25.8808V16.2007H107.987V25.86C107.987 27.1891 107.7 28.3134 107.124 29.2331C106.549 30.1527 105.78 30.8439 104.816 31.3067C103.852 31.7695 102.781 32.0009 101.6 32.0009C100.42 32.0009 99.3783 31.7695 98.429 31.3067C97.4796 30.8439 96.7291 30.1527 96.1773 29.2331C95.6255 28.3134 95.3496 27.1891 95.3496 25.86V16.2007H98.4853Z" fill="#AFC083"/>
<path d="M126.383 20.9058C126.024 20.2472 125.532 19.7488 124.903 19.4047C124.274 19.0606 123.544 18.8885 122.708 18.8885C121.782 18.8885 120.96 19.0991 120.242 19.5174C119.525 19.9357 118.964 20.535 118.56 21.3093C118.157 22.0865 117.955 22.9825 117.955 23.997C117.955 25.0116 118.16 25.955 118.572 26.7323C118.982 27.5095 119.554 28.1058 120.287 28.5241C121.02 28.9424 121.871 29.1501 122.841 29.1501C124.037 29.1501 125.016 28.8326 125.775 28.1978C126.538 27.5629 127.036 26.6789 127.276 25.5427H121.898V23.1456H130.368V25.8809C130.157 26.9726 129.709 27.9812 129.024 28.9068C128.335 29.8324 127.451 30.577 126.369 31.1377C125.286 31.6984 124.072 31.9773 122.728 31.9773C121.218 31.9773 119.857 31.6391 118.64 30.9567C117.424 30.2774 116.466 29.331 115.772 28.1236C115.078 26.9132 114.73 25.5397 114.73 24C114.73 22.4603 115.078 21.0838 115.772 19.8645C116.466 18.6482 117.421 17.6989 118.64 17.0195C119.857 16.3402 121.213 15.999 122.708 15.999C124.47 15.999 126.001 16.4292 127.303 17.2865C128.602 18.1469 129.498 19.3513 129.991 20.9058H126.383Z" fill="#AFC083"/>
<path d="M158.762 25.1421C159.328 25.86 159.613 26.6818 159.613 27.6074C159.613 28.4439 159.408 29.1797 158.996 29.8145C158.584 30.4494 157.99 30.9448 157.213 31.3038C156.436 31.6627 155.516 31.8407 154.457 31.8407H147.711V16.2007H154.163C155.225 16.2007 156.139 16.3727 156.907 16.7169C157.676 17.061 158.26 17.5386 158.655 18.1498C159.049 18.7638 159.248 19.458 159.248 20.2323C159.248 21.1431 159.005 21.9055 158.518 22.5166C158.032 23.1307 157.388 23.5638 156.581 23.816C157.462 23.9792 158.186 24.4212 158.756 25.1391L158.762 25.1421ZM150.853 22.6561H153.721C154.469 22.6561 155.044 22.487 155.448 22.1517C155.851 21.8165 156.053 21.3329 156.053 20.707C156.053 20.081 155.851 19.5945 155.448 19.2504C155.044 18.9062 154.469 18.7342 153.721 18.7342H150.853V22.6561ZM155.795 28.7495C156.219 28.3905 156.433 27.8833 156.433 27.2247C156.433 26.5661 156.207 26.0261 155.759 25.6435C155.311 25.2637 154.706 25.0709 153.944 25.0709H150.853V29.2835H154.012C154.774 29.2835 155.368 29.1055 155.795 28.7465V28.7495Z" fill="#AFC083"/>
<path d="M169.699 16.2007V25.8808C169.699 26.9428 169.975 27.7527 170.527 28.3134C171.079 28.8741 171.856 29.153 172.859 29.153C173.861 29.153 174.659 28.8741 175.211 28.3134C175.763 27.7527 176.042 26.9428 176.042 25.8808V16.2007H179.201V25.86C179.201 27.1891 178.914 28.3134 178.338 29.2331C177.762 30.1527 176.994 30.8439 176.03 31.3067C175.066 31.7695 173.995 32.0009 172.814 32.0009C171.633 32.0009 170.592 31.7695 169.643 31.3067C168.694 30.8439 167.943 30.1527 167.391 29.2331C166.839 28.3134 166.563 27.1891 166.563 25.86V16.2007H169.699Z" fill="#AFC083"/>
<path d="M197.597 20.9058C197.238 20.2472 196.746 19.7488 196.117 19.4047C195.488 19.0606 194.758 18.8885 193.922 18.8885C192.996 18.8885 192.174 19.0991 191.456 19.5174C190.738 19.9357 190.178 20.535 189.774 21.3093C189.371 22.0865 189.169 22.9825 189.169 23.997C189.169 25.0116 189.374 25.955 189.786 26.7323C190.196 27.5095 190.768 28.1058 191.501 28.5241C192.234 28.9424 193.085 29.1501 194.055 29.1501C195.251 29.1501 196.23 28.8326 196.989 28.1978C197.752 27.5629 198.25 26.6789 198.49 25.5427H193.112V23.1456H201.581V25.8809C201.371 26.9726 200.923 27.9812 200.238 28.9068C199.549 29.8324 198.665 30.577 197.582 31.1377C196.5 31.6984 195.286 31.9773 193.942 31.9773C192.432 31.9773 191.071 31.6391 189.851 30.9567C188.635 30.2774 187.677 29.331 186.983 28.1236C186.288 26.9132 185.941 25.5397 185.941 24C185.941 22.4603 186.288 21.0838 186.983 19.8645C187.677 18.6482 188.632 17.6989 189.851 17.0195C191.068 16.3402 192.423 15.999 193.919 15.999C195.681 15.999 197.212 16.4292 198.511 17.2865C199.81 18.1469 200.706 19.3513 201.199 20.9058H197.591H197.597Z" fill="#AFC083"/>
<path d="M139.046 26.1628C139.943 26.1628 140.671 25.4349 140.671 24.5371C140.671 23.6392 139.943 22.9114 139.046 22.9114C138.148 22.9114 137.42 23.6392 137.42 24.5371C137.42 25.4349 138.148 26.1628 139.046 26.1628Z" fill="#AFC083"/>
<path d="M37.7889 14.1567C37.1807 11.1753 34.843 8.81978 31.8734 8.17899C32.0188 7.2 32.3985 5.84129 33.3923 4.79407C34.4722 3.65488 36.1098 3.07639 38.2606 3.07639V0C35.2138 0 32.8168 0.910754 31.1318 2.70853C30.7936 3.06749 30.5058 3.44722 30.2537 3.83288C30.0045 3.44722 29.7137 3.06749 29.3755 2.70853C27.6905 0.910754 25.2934 0 22.2467 0V3.07639C24.3975 3.07639 26.0351 3.65488 27.115 4.79407C28.1058 5.84129 28.4885 7.2 28.6339 8.17899C25.6643 8.81978 23.3266 11.1753 22.7184 14.1567H0V15.6964C0 22.5404 4.34907 28.3876 10.4247 30.6185C11.466 31.0042 12.5577 31.2801 13.685 31.4403C14.4089 31.5441 15.1476 31.5946 15.8952 31.5946C16.2245 31.5946 16.5478 31.5857 16.8653 31.5649C17.9155 31.5026 18.936 31.3335 19.9268 31.0784H19.9328C20.9384 30.8114 21.9026 30.4524 22.8252 30.0074C23.825 29.5209 24.7743 28.9305 25.6465 28.2482C26.667 27.4591 27.5837 26.5394 28.3847 25.5248C29.1174 24.6022 29.7434 23.5906 30.2566 22.5197C30.7698 23.5906 31.3958 24.6022 32.1286 25.5248C32.9295 26.5394 33.8462 27.4591 34.8668 28.2482C35.7389 28.9305 36.6883 29.5209 37.688 30.0074C38.6047 30.4524 39.5748 30.8114 40.5805 31.0784C41.5654 31.3335 42.5859 31.5026 43.6361 31.5649C43.9595 31.5857 44.2858 31.5946 44.6151 31.5946C45.3627 31.5946 46.1014 31.5441 46.8252 31.4403C47.9525 31.2801 49.0443 31.0042 50.0855 30.6185C56.1612 28.3876 60.5103 22.5434 60.5103 15.6964V14.1567H37.7948H37.7889ZM26.842 22.3506C24.5904 26.041 20.5291 28.5152 15.8952 28.5152C9.34784 28.5152 3.93375 23.5817 3.16836 17.2361H28.622C28.4025 19.0932 27.7765 20.8257 26.842 22.3535V22.3506ZM28.714 14.1567H25.9075C26.5424 12.3679 28.2482 11.0803 30.2537 11.0803C32.2591 11.0803 33.9619 12.3679 34.5998 14.1567H28.7169H28.714ZM44.6091 28.5152C39.9753 28.5152 35.914 26.044 33.6623 22.3506C32.7278 20.8227 32.1048 19.0902 31.8823 17.2331H57.336C56.5706 23.5817 51.1565 28.5122 44.6091 28.5122V28.5152Z" fill="#AFC083"/>
<path d="M21.2262 33.8966C20.1968 34.2051 19.1288 34.4187 18.0371 34.5433C20.3807 38.9487 25.0057 41.8441 30.2507 41.8441C35.4957 41.8441 40.0702 38.9072 42.4376 34.5433C41.3459 34.4217 40.2779 34.1992 39.2485 33.8906C37.3053 36.8395 33.9471 38.7678 30.2507 38.7678C26.5543 38.7678 23.1605 36.8602 21.2262 33.8966Z" fill="#EFF2E8"/>
<path d="M30.2509 44.9207C23.3505 44.9207 17.2897 40.6843 14.6879 34.6235C13.4924 34.5523 12.3295 34.3684 11.2021 34.0747C13.7979 42.1647 21.4429 47.9971 30.2509 47.9971C39.0588 47.9971 46.7038 42.1617 49.2996 34.0747C48.1722 34.3684 47.0064 34.5523 45.8138 34.6235C43.2091 40.6843 37.1542 44.9207 30.2509 44.9207Z" fill="#EFF2E8"/>
<path d="M24.208 32.7487C25.6172 34.5375 27.8036 35.6916 30.254 35.6916C32.7044 35.6916 34.8879 34.5375 36.3 32.7487C35.3625 32.2859 34.4636 31.7548 33.6241 31.1497C32.7845 32.0515 31.583 32.6152 30.254 32.6152C28.9249 32.6152 27.7264 32.0515 26.8839 31.1497C26.0444 31.7548 25.1455 32.2888 24.208 32.7487Z" fill="#EFF2E8"/>
<path d="M30.2506 30.0015C31.2321 30.0015 32.0276 29.2059 32.0276 28.2245C32.0276 27.2431 31.2321 26.4475 30.2506 26.4475C29.2692 26.4475 28.4736 27.2431 28.4736 28.2245C28.4736 29.2059 29.2692 30.0015 30.2506 30.0015Z" fill="#EFF2E8"/>
</g>
<defs>
<clipPath id="clip0_9367_210">
<rect width="201.585" height="48" fill="white"/>
</clipPath>
</defs>
</svg>
